<svg width="316" height="92" viewBox="0 0 316 92" fill="none" xmlns="http://www.w3.org/2000/svg">
<path d="M154.817 25.2234L158.926 19.7667C157.039 18.2877 154.817 17.2158 152.318 16.5031C149.819 15.789 147.042 15.4326 144.044 15.4326C141.823 15.4326 139.824 15.6369 137.935 16.1467C136.158 16.5552 134.548 17.2693 133.271 18.1356C131.993 19.0033 130.939 20.1245 130.272 21.4513C129.494 22.726 129.161 24.2557 129.161 25.9389C129.161 29.0504 130.161 31.3956 132.16 33.0281C134.159 34.6606 136.991 35.6803 140.601 36.1395L146.319 36.8029C148.207 37.0579 149.54 37.4664 150.372 38.027C151.205 38.5876 151.594 39.4045 151.594 40.3736C151.594 41.5469 150.982 42.4638 149.816 43.1273C148.595 43.7907 146.763 44.1471 144.319 44.1471C142.042 44.1471 139.821 43.8921 137.766 43.3822C135.712 42.8723 133.601 42.0047 131.547 40.8328L128.049 47.105C130.436 48.5839 132.935 49.6037 135.434 50.1643C137.932 50.7249 140.764 51.032 143.818 51.032C146.428 51.032 148.704 50.777 150.703 50.2164C152.757 49.7065 154.423 48.9924 155.81 47.9726C157.143 47.0543 158.143 45.8824 158.865 44.5048C159.587 43.1273 159.92 41.6483 159.92 39.9651C159.92 37.0579 158.92 34.7127 156.921 32.9788C154.867 31.1434 151.812 30.0208 147.759 29.5109L142.317 28.8475C140.596 28.6433 139.374 28.2869 138.597 27.777C137.819 27.3179 137.431 26.553 137.431 25.5839C137.431 24.5135 137.931 23.6965 138.985 23.0852C140.04 22.5246 141.762 22.2189 144.205 22.2189C146.149 22.2189 148.036 22.4739 149.868 22.9838C151.701 23.4937 153.312 24.2585 154.811 25.2276L154.817 25.2234ZM173.429 16.1453H165.044V35.2705C165.044 37.6678 165.433 39.8609 166.156 41.799C166.877 43.7372 167.988 45.4204 169.376 46.7458C170.82 48.1741 172.596 49.1938 174.706 49.908C176.76 50.6728 179.149 51.0306 181.869 51.0306C184.59 51.0306 187.034 50.6221 189.144 49.908C191.198 49.0924 192.975 48.0205 194.363 46.6444C195.807 45.2668 196.917 43.585 197.583 41.6469C198.361 39.658 198.694 37.5157 198.694 35.1197V16.1482H190.31V35.2733C190.31 38.1805 189.589 40.3736 188.2 41.8525C186.812 43.3822 184.701 44.1471 181.869 44.1471C179.093 44.1471 176.983 43.3315 175.594 41.7497C174.15 40.1172 173.429 37.9255 173.429 35.1704V16.1482V16.1453ZM222.303 16.1453H205.478V50.315H213.807V40.1158H221.303L228.133 50.315H238.238L229.188 38.0748C231.575 37.1565 233.464 35.7803 234.796 33.9943C236.129 32.2097 236.795 30.118 236.795 27.7728C236.795 25.9882 236.462 24.4064 235.741 22.9796C235.019 21.5513 234.02 20.3273 232.797 19.3075C231.465 18.2877 229.965 17.5229 228.188 16.9609C226.411 16.4003 224.468 16.1453 222.303 16.1453ZM213.807 33.3323V22.9796H221.914C223.913 22.9796 225.468 23.4387 226.579 24.305C227.745 25.2234 228.3 26.4981 228.3 28.1292C228.3 29.7617 227.688 31.0364 226.467 31.9548C225.301 32.8731 223.69 33.3323 221.691 33.3323H213.807ZM251.186 16.1453H242.802V35.2705C242.802 37.6678 243.19 39.8609 243.913 41.799C244.635 43.7372 245.746 45.4204 247.133 46.7458C248.578 48.1741 250.354 49.1938 252.464 49.908C254.518 50.6728 256.907 51.0306 259.627 51.0306C262.348 51.0306 264.791 50.6221 266.902 49.908C268.956 49.0924 270.733 48.0205 272.121 46.6444C273.565 45.2668 274.675 43.585 275.341 41.6469C276.119 39.658 276.452 37.5157 276.452 35.1197V16.1482H268.068V35.2733C268.068 38.1805 267.346 40.3736 265.957 41.8525C264.57 43.3822 262.459 44.1471 259.627 44.1471C256.85 44.1471 254.741 43.3315 253.352 41.7497C251.908 40.1172 251.186 37.9255 251.186 35.1704V16.1482V16.1453ZM300.06 16.1453H283.235V50.315H291.565V40.1158H299.061L305.891 50.315H315.996L306.945 38.0748C309.333 37.1565 311.221 35.7803 312.554 33.9943C313.887 32.2097 314.553 30.118 314.553 27.7728C314.553 25.9882 314.22 24.4064 313.498 22.9796C312.777 21.5513 311.778 20.3273 310.555 19.3075C309.222 18.2877 307.723 17.5229 305.946 16.9609C304.168 16.4003 302.226 16.1453 300.06 16.1453ZM291.565 33.3323V22.9796H299.672C301.671 22.9796 303.225 23.4387 304.336 24.305C305.503 25.2234 306.057 26.4981 306.057 28.1292C306.057 29.7617 305.446 31.0364 304.225 31.9548C303.059 32.8731 301.448 33.3323 299.449 33.3323H291.565Z" fill="#FEFEFE"/>
<path d="M138.902 60.8251H138.042V64.9465C137.57 64.6056 137.047 64.3422 136.474 64.1718C135.884 63.9859 135.225 63.8929 134.483 63.8929C133.86 63.8929 133.268 63.9859 132.712 64.1718C132.156 64.3732 131.683 64.6366 131.277 65.0085C130.855 65.3493 130.535 65.7987 130.299 66.31C130.063 66.8213 129.945 67.41 129.945 68.0453C129.945 69.3623 130.316 70.3694 131.074 71.0821C131.834 71.8103 132.846 72.1667 134.145 72.1667C135.055 72.1667 135.866 71.9652 136.574 71.5779C137.266 71.1751 137.79 70.5863 138.11 69.8271L138.244 71.9807H138.902V60.8237V60.8251ZM138.042 65.6902V68.696C137.688 69.5792 137.198 70.2609 136.574 70.7412C135.967 71.2215 135.191 71.4694 134.229 71.4694C133.756 71.4694 133.319 71.392 132.897 71.2525C132.475 71.1131 132.12 70.8962 131.817 70.6018C131.496 70.3074 131.261 69.951 131.074 69.5327C130.906 69.1144 130.821 68.6186 130.821 68.0763C130.821 67.5185 130.906 67.0227 131.108 66.5889C131.277 66.155 131.547 65.7832 131.885 65.4888C132.222 65.1944 132.627 64.962 133.1 64.8071C133.573 64.6521 134.095 64.5747 134.668 64.5747C135.899 64.5747 137.03 64.9465 138.042 65.6902ZM147.075 68.3087H154.684C154.752 68.0608 154.785 67.7974 154.785 67.503C154.785 66.9762 154.684 66.4959 154.499 66.0466C154.314 65.5972 154.043 65.2254 153.689 64.9C153.334 64.5746 152.912 64.3267 152.441 64.1563C151.934 63.9859 151.395 63.8929 150.804 63.8929C150.113 63.8929 149.472 64.0014 148.899 64.2028C148.342 64.4042 147.853 64.6986 147.447 65.0705C147.042 65.4423 146.739 65.8761 146.503 66.3874C146.301 66.8987 146.182 67.441 146.182 68.0453C146.182 68.6805 146.301 69.2538 146.503 69.7806C146.739 70.2764 147.042 70.7102 147.447 71.0821C147.853 71.423 148.341 71.7018 148.899 71.8878C149.472 72.0737 150.113 72.1667 150.804 72.1667C151.513 72.1667 152.171 72.0892 152.778 71.9188C153.402 71.7638 153.96 71.5159 154.482 71.1596L154.077 70.5708C153.587 70.8962 153.065 71.1131 152.541 71.2525C152.019 71.392 151.444 71.4539 150.837 71.4539C149.74 71.4539 148.863 71.1751 148.188 70.6328C147.497 70.0905 147.125 69.3158 147.075 68.3087ZM153.924 67.596H147.092C147.227 66.6663 147.614 65.9381 148.256 65.3803C148.88 64.8535 149.708 64.5747 150.737 64.5747C151.8 64.5747 152.593 64.8535 153.115 65.3958C153.638 65.9381 153.909 66.6818 153.926 67.596H153.924ZM168.574 65.3493L168.962 64.7451C168.506 64.4507 167.967 64.2338 167.392 64.0943C166.785 63.9549 166.195 63.8929 165.57 63.8929C164.946 63.8929 164.388 63.9549 163.95 64.0788C163.477 64.1873 163.106 64.3577 162.803 64.5437C162.516 64.7606 162.296 64.9775 162.145 65.2564C161.992 65.5043 161.926 65.7987 161.926 66.0931C161.926 66.6663 162.129 67.1311 162.533 67.4875C162.938 67.8439 163.511 68.0608 164.254 68.1382L166.414 68.3707C167.173 68.4481 167.713 68.6186 168.033 68.882C168.337 69.1299 168.489 69.4552 168.489 69.8736C168.489 70.3539 168.236 70.7412 167.696 71.0356C167.189 71.33 166.431 71.4849 165.452 71.4849C164.828 71.4849 164.237 71.423 163.681 71.268C163.125 71.1441 162.567 70.9117 162.045 70.6018L161.639 71.268C162.213 71.5934 162.803 71.8258 163.411 71.9652C164.001 72.1047 164.659 72.1667 165.368 72.1667C166.65 72.1667 167.628 71.9498 168.32 71.5469C169.011 71.1286 169.349 70.5553 169.349 69.8581C169.349 69.1918 169.079 68.665 168.538 68.3242C168.016 67.9523 167.307 67.7354 166.429 67.6424L164.507 67.441C163.883 67.379 163.427 67.2396 163.174 67.0072C162.921 66.7748 162.786 66.4804 162.786 66.0931C162.786 65.6592 163.005 65.3029 163.477 65.0085C163.917 64.7141 164.608 64.5747 165.536 64.5747C166.599 64.5747 167.611 64.838 168.572 65.3493H168.574ZM177.589 64.0788H176.711V71.9807H177.589V64.0788ZM177.15 60.7012C176.931 60.7012 176.728 60.7631 176.577 60.9026C176.407 61.042 176.324 61.2125 176.324 61.4449C176.324 61.6773 176.409 61.8632 176.577 62.0027C176.728 62.1266 176.931 62.1886 177.15 62.1886C177.369 62.1886 177.572 62.1266 177.723 62.0027C177.893 61.8632 177.976 61.6773 177.976 61.4449C177.976 61.2125 177.891 61.042 177.723 60.9026C177.571 60.7631 177.369 60.7012 177.15 60.7012ZM193.959 64.2958L193.892 63.6915L191.462 63.8929H189.64C189.016 63.8929 188.475 63.9704 188.02 64.1098C187.547 64.2493 187.161 64.4507 186.839 64.6986C186.535 64.9465 186.298 65.2409 186.164 65.5663C185.994 65.8916 185.928 66.248 185.928 66.6198C185.928 67.1931 186.079 67.7044 186.401 68.1537C185.979 68.4171 185.658 68.7115 185.44 69.0369C185.221 69.3623 185.119 69.7186 185.119 70.106C185.119 70.4313 185.204 70.7257 185.355 70.9581C185.523 71.206 185.76 71.4075 186.047 71.5624C185.692 71.8258 185.423 72.1667 185.236 72.6005C185.051 73.0033 184.95 73.4682 184.95 73.9485C184.95 74.7387 185.27 75.3739 185.928 75.8542C186.586 76.3345 187.564 76.5669 188.88 76.5669C189.64 76.5669 190.314 76.4895 190.921 76.319C191.545 76.1486 192.069 75.9162 192.491 75.6373C192.913 75.3274 193.251 74.9866 193.486 74.6147C193.705 74.2119 193.824 73.7935 193.824 73.3442C193.824 73.0498 193.756 72.7864 193.654 72.523C193.52 72.2596 193.351 72.0427 193.098 71.8258C192.846 71.6399 192.542 71.4694 192.171 71.361C191.799 71.237 191.36 71.1751 190.838 71.1751H187.852C187.245 71.1751 186.772 71.0976 186.435 70.9581C186.098 70.8032 185.93 70.4933 185.93 70.0285C185.93 69.7496 185.997 69.4862 186.131 69.2538C186.282 69.0059 186.52 68.8045 186.874 68.6495C187.498 69.1299 188.359 69.3778 189.456 69.3778C190.012 69.3778 190.519 69.3003 190.957 69.1608C191.413 69.0059 191.784 68.8045 192.104 68.5566C192.425 68.3087 192.661 68.0143 192.813 67.6734C192.983 67.3481 193.066 66.9917 193.066 66.6198C193.066 66.2325 192.981 65.8761 192.813 65.5198C192.645 65.1634 192.408 64.8535 192.121 64.5901L193.961 64.2958H193.959ZM186.688 71.8103L187.852 71.8878H190.721C191.531 71.8878 192.104 72.0117 192.442 72.2596C192.779 72.5075 192.949 72.8794 192.949 73.3752C192.949 73.747 192.847 74.0879 192.645 74.3978C192.46 74.6922 192.189 74.9556 191.835 75.1725C191.48 75.4049 191.058 75.5753 190.587 75.6993C190.08 75.8077 189.558 75.8697 188.968 75.8697C187.905 75.8697 187.111 75.6993 186.572 75.3429C186.066 74.9866 185.795 74.4753 185.795 73.7935C185.795 73.4372 185.863 73.0653 186.014 72.7244C186.167 72.3526 186.386 72.0582 186.689 71.8103H186.688ZM189.455 64.5592H191.023C191.445 64.8226 191.732 65.1014 191.935 65.4423C192.103 65.7522 192.205 66.155 192.205 66.6198C192.205 66.9452 192.137 67.2396 192.001 67.503C191.849 67.7664 191.664 67.9833 191.411 68.1537C191.159 68.3242 190.871 68.4636 190.533 68.5721C190.196 68.665 189.841 68.7115 189.453 68.7115C188.609 68.7115 187.951 68.5101 187.48 68.1382C187.024 67.7354 186.788 67.2396 186.788 66.6198C186.788 65.9691 187.024 65.4578 187.497 65.1014C187.969 64.7451 188.627 64.5592 189.453 64.5592H189.455ZM201.895 64.0788H201.237V71.9807H202.098V67.6579C202.435 66.7283 202.908 65.9846 203.532 65.4268C204.156 64.869 204.899 64.5901 205.792 64.5901C206.686 64.5901 207.378 64.8226 207.851 65.2564C208.358 65.7212 208.593 66.4339 208.593 67.41V71.9807H209.454V67.2396C209.454 66.7283 209.37 66.2635 209.202 65.8451C209.049 65.4268 208.814 65.0859 208.51 64.7916C208.207 64.4972 207.852 64.2803 207.413 64.1253C207.008 63.9704 206.536 63.8929 206.013 63.8929C205.001 63.8929 204.175 64.1098 203.517 64.5437C202.859 64.993 202.369 65.5972 202.032 66.3874L201.898 64.0788H201.895ZM228.725 65.3493L229.113 64.7451C228.657 64.4507 228.117 64.2338 227.543 64.0943C226.936 63.9549 226.346 63.8929 225.72 63.8929C225.096 63.8929 224.539 63.9549 224.101 64.0788C223.628 64.1873 223.257 64.3577 222.953 64.5437C222.667 64.7606 222.448 64.9775 222.296 65.2564C222.143 65.5043 222.077 65.7987 222.077 66.0931C222.077 66.6663 222.279 67.1311 222.684 67.4875C223.089 67.8439 223.662 68.0608 224.405 68.1382L226.565 68.3707C227.324 68.4481 227.863 68.6186 228.184 68.882C228.487 69.1299 228.64 69.4552 228.64 69.8736C228.64 70.3539 228.387 70.7412 227.846 71.0356C227.34 71.33 226.582 71.4849 225.603 71.4849C224.979 71.4849 224.389 71.423 223.831 71.268C223.275 71.1441 222.718 70.9117 222.195 70.6018L221.79 71.268C222.363 71.5934 222.953 71.8258 223.562 71.9652C224.152 72.1047 224.81 72.1667 225.518 72.1667C226.8 72.1667 227.779 71.9498 228.47 71.5469C229.162 71.1286 229.5 70.5553 229.5 69.8581C229.5 69.1918 229.23 68.665 228.689 68.3242C228.167 67.9523 227.458 67.7354 226.58 67.6424L224.657 67.441C224.033 67.379 223.577 67.2396 223.325 67.0072C223.072 66.7748 222.936 66.4804 222.936 66.0931C222.936 65.6592 223.157 65.3029 223.628 65.0085C224.067 64.7141 224.759 64.5747 225.686 64.5747C226.75 64.5747 227.762 64.838 228.723 65.3493H228.725ZM237.335 68.3087H244.944C245.012 68.0608 245.045 67.7974 245.045 67.503C245.045 66.9762 244.944 66.4959 244.759 66.0466C244.574 65.5972 244.303 65.2254 243.949 64.9C243.594 64.5746 243.172 64.3267 242.701 64.1563C242.194 63.9859 241.654 63.8929 241.064 63.8929C240.373 63.8929 239.732 64.0014 239.157 64.2028C238.601 64.4042 238.111 64.6986 237.706 65.0705C237.301 65.4423 236.997 65.8761 236.761 66.3874C236.56 66.8987 236.441 67.441 236.441 68.0453C236.441 68.6805 236.56 69.2538 236.761 69.7806C236.999 70.2764 237.301 70.7102 237.706 71.0821C238.111 71.423 238.6 71.7018 239.157 71.8878C239.73 72.0737 240.371 72.1667 241.064 72.1667C241.773 72.1667 242.431 72.0892 243.038 71.9188C243.662 71.7638 244.22 71.5159 244.742 71.1596L244.337 70.5708C243.847 70.8962 243.325 71.1131 242.802 71.2525C242.278 71.392 241.705 71.4539 241.098 71.4539C240.001 71.4539 239.125 71.1751 238.45 70.6328C237.758 70.0905 237.387 69.3158 237.336 68.3087H237.335ZM244.184 67.596H237.352C237.487 66.6663 237.874 65.9381 238.516 65.3803C239.14 64.8535 239.967 64.5747 240.997 64.5747C242.06 64.5747 242.852 64.8535 243.375 65.3958C243.898 65.9381 244.169 66.6818 244.186 67.596H244.184ZM252.979 64.0788H252.321V71.9807H253.181V67.6889C253.502 66.7128 253.958 65.9536 254.548 65.4113C255.121 64.869 255.83 64.6056 256.691 64.6056C257.552 64.6056 258.293 64.8226 258.918 65.2564L259.391 64.6521C259.054 64.3887 258.666 64.2028 258.227 64.0788C257.788 63.9549 257.333 63.8929 256.86 63.8929C255.967 63.8929 255.224 64.0943 254.583 64.5127C253.976 64.9155 253.469 65.5508 253.098 66.4029L252.979 64.0788ZM266.751 64.0788H265.738L269.77 72.0427H270.732L274.764 64.0788H273.768L270.36 71.1441H270.191L266.749 64.0788H266.751ZM282.75 64.0788H281.873V71.9807H282.75V64.0788ZM282.311 60.7012C282.092 60.7012 281.889 60.7631 281.738 60.9026C281.568 61.042 281.485 61.2125 281.485 61.4449C281.485 61.6773 281.57 61.8632 281.738 62.0027C281.889 62.1266 282.092 62.1886 282.311 62.1886C282.531 62.1886 282.733 62.1266 282.884 62.0027C283.053 61.8632 283.137 61.6773 283.137 61.4449C283.137 61.2125 283.052 61.042 282.884 60.9026C282.733 60.7631 282.53 60.7012 282.311 60.7012ZM297.569 65.5663L298.091 65.055C297.72 64.6986 297.23 64.4042 296.64 64.2028C296.05 64.0014 295.358 63.8929 294.581 63.8929C293.957 63.8929 293.366 63.9859 292.81 64.1873C292.254 64.3887 291.781 64.6676 291.358 65.0085C290.936 65.3803 290.616 65.8142 290.38 66.3255C290.144 66.8368 290.026 67.41 290.026 68.0453C290.026 68.6186 290.126 69.1608 290.312 69.6567C290.514 70.168 290.819 70.6018 291.189 70.9736C291.594 71.3455 292.066 71.6399 292.64 71.8568C293.197 72.0582 293.856 72.1667 294.58 72.1667C296.15 72.1667 297.381 71.7173 298.308 70.8342L297.786 70.3074C296.976 71.0666 295.93 71.4539 294.648 71.4539C294.058 71.4539 293.534 71.3765 293.078 71.206C292.622 71.0356 292.234 70.8032 291.898 70.4933C291.594 70.1989 291.342 69.8271 291.155 69.4087C290.987 68.9749 290.902 68.4946 290.902 67.9523C290.902 67.441 291.004 66.9607 291.189 66.5579C291.392 66.124 291.662 65.7832 291.999 65.4888C292.337 65.1944 292.725 64.9775 293.181 64.8225C293.637 64.6676 294.108 64.5901 294.615 64.5901C295.256 64.5901 295.812 64.6831 296.302 64.8535C296.792 65.024 297.213 65.2719 297.567 65.5663H297.569ZM305.807 68.3087H313.417C313.484 68.0608 313.518 67.7974 313.518 67.503C313.518 66.9762 313.417 66.4959 313.232 66.0466C313.047 65.5972 312.776 65.2254 312.421 64.9C312.067 64.5746 311.645 64.3267 311.173 64.1563C310.667 63.9859 310.127 63.8929 309.537 63.8929C308.845 63.8929 308.205 64.0014 307.63 64.2028C307.074 64.4042 306.584 64.6986 306.179 65.0705C305.774 65.4423 305.47 65.8761 305.234 66.3874C305.032 66.8987 304.914 67.441 304.914 68.0453C304.914 68.6805 305.032 69.2538 305.234 69.7806C305.471 70.2764 305.774 70.7102 306.179 71.0821C306.584 71.423 307.072 71.7018 307.63 71.8878C308.203 72.0737 308.844 72.1667 309.537 72.1667C310.246 72.1667 310.904 72.0892 311.511 71.9188C312.135 71.7638 312.692 71.5159 313.215 71.1596L312.81 70.5708C312.32 70.8962 311.797 71.1131 311.274 71.2525C310.751 71.392 310.177 71.4539 309.57 71.4539C308.473 71.4539 307.596 71.1751 306.921 70.6328C306.23 70.0905 305.858 69.3158 305.807 68.3087ZM312.657 67.596H305.824C305.96 66.6663 306.347 65.9381 306.989 65.3803C307.613 64.8535 308.44 64.5747 309.469 64.5747C310.532 64.5747 311.324 64.8535 311.848 65.3958C312.371 65.9381 312.642 66.6818 312.659 67.596H312.657Z" fill="#FEFEFE"/>
<path fill-rule="evenodd" clip-rule="evenodd" d="M0.475672 0.254883H92.1742V91.745H0.475672V0.254883Z" fill="#FEFEFE" stroke="#2B2A29" stroke-width="0.199969" stroke-miterlimit="22.9256"/>
<path fill-rule="evenodd" clip-rule="evenodd" d="M20.1791 22.6766L44.6584 8.78418L44.8828 40.7143L20.964 55.3913L20.1791 22.6766Z" fill="#22252C"/>
<path d="M91.8904 22.0366C90.5154 21.4817 44.4339 9.65137 44.4339 9.65137" stroke="#22252C" stroke-width="0.705709" stroke-miterlimit="22.9256"/>
<path d="M44.1375 29.8076L72.2336 36.5587L72.4298 68.8058L48.799 82.0559L48.3105 51.2695L57.2114 45.7185L59.2471 44.4494L44.0203 40.3956" stroke="#22252C" stroke-width="0.705709" stroke-miterlimit="22.9256"/>
<path d="M33.5199 46.751L48.3105 51.2696" stroke="#22252C" stroke-width="0.705709" stroke-miterlimit="22.9256"/>
<path d="M21.2379 54.4834L48.4997 63.2121" stroke="#22252C" stroke-width="0.705709" stroke-miterlimit="22.9256"/>
<path d="M48.2244 82.708L0.239906 69.5283" stroke="#22252C" stroke-width="0.705709" stroke-miterlimit="22.9256"/>
<path d="M0.475672 38.2871L21.4073 43.6522" stroke="#22252C" stroke-width="0.705709" stroke-miterlimit="22.9256"/>
<path d="M72.2985 47.2939L92.1741 52.5971" stroke="#22252C" stroke-width="0.705709" stroke-miterlimit="22.9256"/>
<path fill-rule="evenodd" clip-rule="evenodd" d="M71.4811 36.3799C67.9532 38.611 62.8865 41.9013 59.0579 44.4015L59.2471 44.4508L57.2114 45.7199L53.6652 47.9313C53.6623 47.9327 53.6609 47.9341 53.6609 47.9341L48.3105 51.2709L48.47 61.3335L48.7834 81.0854L48.799 82.0573L72.4298 68.8072L72.2999 47.296L72.235 36.5588L71.4825 36.3799H71.4811Z" fill="#22252C"/>
</svg>
