<svg width="225" height="66" viewBox="0 0 225 66" fill="none" xmlns="http://www.w3.org/2000/svg">
<path d="M110.658 18.6985L113.573 14.8305C112.234 13.7821 110.658 13.0223 108.885 12.5171C107.112 12.0109 105.142 11.7583 103.015 11.7583C101.44 11.7583 100.022 11.9031 98.6819 12.2645C97.421 12.5541 96.2793 13.0603 95.3729 13.6743C94.4666 14.2893 93.7185 15.0841 93.2458 16.0246C92.6939 16.9282 92.4576 18.0125 92.4576 19.2057C92.4576 21.4112 93.1666 23.0736 94.5848 24.2308C96.0029 25.388 98.0119 26.1109 100.573 26.4364L104.63 26.9066C105.969 27.0874 106.914 27.3769 107.505 27.7743C108.096 28.1717 108.371 28.7508 108.371 29.4377C108.371 30.2694 107.938 30.9194 107.11 31.3897C106.244 31.8599 104.944 32.1125 103.211 32.1125C101.595 32.1125 100.02 31.9318 98.5617 31.5704C97.1045 31.2089 95.6073 30.5939 94.1501 29.7632L91.6684 34.2092C93.3619 35.2576 95.1346 35.9805 96.9072 36.3779C98.6799 36.7752 100.689 36.9929 102.855 36.9929C104.707 36.9929 106.321 36.8122 107.739 36.4148C109.197 36.0534 110.378 35.5472 111.363 34.8243C112.308 34.1733 113.017 33.3426 113.53 32.3661C114.042 31.3897 114.278 30.3413 114.278 29.1482C114.278 27.0874 113.569 25.425 112.151 24.1959C110.694 22.8949 108.527 22.0992 105.651 21.7377L101.79 21.2675C100.57 21.1227 99.7024 20.8701 99.1516 20.5086C98.5997 20.1831 98.3243 19.641 98.3243 18.9541C98.3243 18.1953 98.6789 17.6162 99.427 17.1828C100.175 16.7855 101.397 16.5688 103.129 16.5688C104.509 16.5688 105.848 16.7495 107.147 17.1109C108.447 17.4724 109.59 18.0145 110.654 18.7015L110.658 18.6985ZM123.861 12.2635H117.914V25.8203C117.914 27.5197 118.189 29.0743 118.702 30.4481C119.213 31.822 120.002 33.0151 120.986 33.9546C122.011 34.9671 123.27 35.6899 124.768 36.1961C126.225 36.7383 127.919 36.9919 129.849 36.9919C131.779 36.9919 133.513 36.7024 135.01 36.1961C136.467 35.618 137.728 34.8582 138.712 33.8828C139.737 32.9063 140.524 31.7141 140.997 30.3403C141.549 28.9305 141.785 27.4119 141.785 25.7135V12.2655H135.837V25.8223C135.837 27.8831 135.325 29.4377 134.34 30.4861C133.356 31.5704 131.858 32.1125 129.849 32.1125C127.879 32.1125 126.383 31.5344 125.398 30.4132C124.373 29.256 123.861 27.7024 123.861 25.7495V12.2655V12.2635ZM158.533 12.2635H146.597V36.4847H152.506V29.255H157.824L162.669 36.4847H169.838L163.417 27.8082C165.111 27.1573 166.451 26.1818 167.396 24.9158C168.342 23.6507 168.814 22.168 168.814 20.5056C168.814 19.2406 168.578 18.1194 168.066 17.1079C167.554 16.0955 166.845 15.2279 165.978 14.505C165.033 13.7821 163.969 13.24 162.708 12.8416C161.447 12.4442 160.069 12.2635 158.533 12.2635ZM152.506 24.4465V17.1079H158.258C159.676 17.1079 160.778 17.4334 161.567 18.0475C162.394 18.6985 162.787 19.6021 162.787 20.7582C162.787 21.9154 162.354 22.819 161.487 23.47C160.66 24.121 159.517 24.4465 158.099 24.4465H152.506ZM179.024 12.2635H173.076V25.8203C173.076 27.5197 173.351 29.0743 173.864 30.4481C174.376 31.822 175.164 33.0151 176.148 33.9546C177.173 34.9671 178.433 35.6899 179.93 36.1961C181.387 36.7383 183.082 36.9919 185.011 36.9919C186.941 36.9919 188.675 36.7024 190.172 36.1961C191.629 35.618 192.89 34.8582 193.875 33.8828C194.899 32.9063 195.686 31.7141 196.159 30.3403C196.711 28.9305 196.947 27.4119 196.947 25.7135V12.2655H190.999V25.8223C190.999 27.8831 190.488 29.4377 189.502 30.4861C188.518 31.5704 187.02 32.1125 185.011 32.1125C183.042 32.1125 181.545 31.5344 180.56 30.4132C179.535 29.256 179.024 27.7024 179.024 25.7495V12.2655V12.2635ZM213.695 12.2635H201.759V36.4847H207.668V29.255H212.986L217.831 36.4847H225L218.579 27.8082C220.273 27.1573 221.613 26.1818 222.558 24.9158C223.504 23.6507 223.976 22.168 223.976 20.5056C223.976 19.2406 223.74 18.1194 223.228 17.1079C222.717 16.0955 222.008 15.2279 221.14 14.505C220.195 13.7821 219.131 13.24 217.87 12.8416C216.609 12.4442 215.231 12.2635 213.695 12.2635ZM207.668 24.4465V17.1079H213.42C214.838 17.1079 215.941 17.4334 216.729 18.0475C217.556 18.6985 217.949 19.6021 217.949 20.7582C217.949 21.9154 217.516 22.819 216.65 23.47C215.822 24.121 214.68 24.4465 213.262 24.4465H207.668Z" fill="#22252C"/>
<path d="M99.3679 43.935H98.758V46.8565C98.4225 46.6148 98.0519 46.4281 97.6453 46.3073C97.2267 46.1755 96.759 46.1096 96.2332 46.1096C95.7906 46.1096 95.3709 46.1755 94.9763 46.3073C94.5818 46.4501 94.2463 46.6368 93.9588 46.9004C93.6594 47.142 93.432 47.4605 93.2648 47.823C93.0975 48.1854 93.0134 48.6027 93.0134 49.053C93.0134 49.9866 93.2768 50.7005 93.8146 51.2057C94.3534 51.7219 95.0715 51.9745 95.9929 51.9745C96.6388 51.9745 97.2137 51.8317 97.7164 51.5571C98.2072 51.2716 98.5787 50.8542 98.806 50.3161L98.9012 51.8427H99.3679V43.934V43.935ZM98.758 47.3836V49.5143C98.5066 50.1403 98.1591 50.6236 97.7164 50.9641C97.2858 51.3045 96.735 51.4803 96.0529 51.4803C95.7174 51.4803 95.407 51.4253 95.1075 51.3265C94.8081 51.2276 94.5567 51.0739 94.3414 50.8652C94.1141 50.6565 93.9468 50.4039 93.8146 50.1074C93.6954 49.8109 93.6353 49.4594 93.6353 49.075C93.6353 48.6796 93.6954 48.3282 93.8386 48.0207C93.9588 47.7131 94.1501 47.4495 94.3895 47.2409C94.6288 47.0322 94.9163 46.8675 95.2518 46.7576C95.5873 46.6478 95.9578 46.5929 96.3644 46.5929C97.2377 46.5929 98.0399 46.8565 98.758 47.3836ZM105.166 49.2397H110.564C110.612 49.064 110.636 48.8773 110.636 48.6686C110.636 48.2952 110.564 47.9548 110.432 47.6363C110.301 47.3177 110.109 47.0542 109.858 46.8235C109.606 46.5929 109.307 46.4172 108.972 46.2963C108.613 46.1755 108.23 46.1096 107.811 46.1096C107.321 46.1096 106.866 46.1865 106.459 46.3293C106.065 46.4721 105.717 46.6807 105.43 46.9443C105.142 47.2079 104.927 47.5154 104.76 47.8779C104.617 48.2403 104.533 48.6247 104.533 49.053C104.533 49.5033 104.617 49.9097 104.76 50.2831C104.927 50.6346 105.142 50.9421 105.43 51.2057C105.717 51.4473 106.064 51.645 106.459 51.7768C106.866 51.9086 107.321 51.9745 107.811 51.9745C108.314 51.9745 108.781 51.9196 109.212 51.7988C109.654 51.6889 110.05 51.5132 110.42 51.2606L110.133 50.8432C109.785 51.0739 109.415 51.2276 109.043 51.3265C108.673 51.4253 108.265 51.4693 107.834 51.4693C107.056 51.4693 106.434 51.2716 105.956 50.8872C105.465 50.5028 105.202 49.9536 105.166 49.2397ZM110.025 48.7345H105.178C105.274 48.0756 105.548 47.5594 106.004 47.164C106.446 46.7906 107.033 46.5929 107.763 46.5929C108.518 46.5929 109.08 46.7906 109.451 47.175C109.821 47.5594 110.014 48.0865 110.026 48.7345H110.025ZM120.417 47.142L120.693 46.7137C120.369 46.505 119.987 46.3513 119.579 46.2524C119.148 46.1536 118.73 46.1096 118.286 46.1096C117.843 46.1096 117.448 46.1536 117.137 46.2414C116.802 46.3183 116.538 46.4391 116.323 46.5709C116.12 46.7247 115.964 46.8784 115.856 47.0761C115.748 47.2519 115.701 47.4605 115.701 47.6692C115.701 48.0756 115.845 48.4051 116.132 48.6577C116.419 48.9103 116.826 49.064 117.353 49.1189L118.885 49.2837C119.424 49.3386 119.806 49.4594 120.034 49.6461C120.249 49.8218 120.357 50.0525 120.357 50.349C120.357 50.6895 120.178 50.9641 119.794 51.1727C119.435 51.3814 118.897 51.4912 118.203 51.4912C117.76 51.4912 117.341 51.4473 116.946 51.3375C116.551 51.2496 116.156 51.0849 115.785 50.8652L115.498 51.3375C115.905 51.5681 116.323 51.7329 116.755 51.8317C117.173 51.9306 117.64 51.9745 118.143 51.9745C119.052 51.9745 119.746 51.8207 120.237 51.5352C120.728 51.2386 120.967 50.8323 120.967 50.338C120.967 49.8658 120.776 49.4924 120.392 49.2507C120.022 48.9871 119.519 48.8334 118.896 48.7675L117.532 48.6247C117.089 48.5808 116.766 48.4819 116.587 48.3172C116.407 48.1524 116.311 47.9438 116.311 47.6692C116.311 47.3617 116.466 47.1091 116.802 46.9004C117.113 46.6917 117.604 46.5929 118.262 46.5929C119.016 46.5929 119.734 46.7796 120.416 47.142H120.417ZM126.813 46.2414H126.19V51.8427H126.813V46.2414ZM126.501 43.8472C126.346 43.8472 126.202 43.8911 126.095 43.9899C125.975 44.0888 125.915 44.2096 125.915 44.3743C125.915 44.5391 125.976 44.6709 126.095 44.7697C126.202 44.8576 126.346 44.9015 126.501 44.9015C126.657 44.9015 126.801 44.8576 126.908 44.7697C127.028 44.6709 127.087 44.5391 127.087 44.3743C127.087 44.2096 127.027 44.0888 126.908 43.9899C126.8 43.8911 126.657 43.8472 126.501 43.8472ZM138.426 46.3952L138.378 45.9669L136.654 46.1096H135.361C134.919 46.1096 134.535 46.1645 134.213 46.2634C133.877 46.3622 133.603 46.505 133.375 46.6807C133.159 46.8565 132.991 47.0651 132.896 47.2958C132.776 47.5264 132.729 47.779 132.729 48.0426C132.729 48.449 132.836 48.8114 133.064 49.1299C132.765 49.3166 132.537 49.5253 132.382 49.7559C132.227 49.9866 132.155 50.2392 132.155 50.5138C132.155 50.7444 132.215 50.9531 132.322 51.1178C132.441 51.2935 132.609 51.4363 132.813 51.5461C132.561 51.7329 132.37 51.9745 132.238 52.282C132.107 52.5676 132.035 52.897 132.035 53.2375C132.035 53.7976 132.262 54.2479 132.729 54.5884C133.195 54.9289 133.889 55.0936 134.823 55.0936C135.361 55.0936 135.84 55.0387 136.271 54.9179C136.714 54.7971 137.085 54.6323 137.384 54.4346C137.684 54.215 137.923 53.9734 138.091 53.7098C138.246 53.4242 138.33 53.1277 138.33 52.8092C138.33 52.6005 138.282 52.4138 138.21 52.2271C138.115 52.0404 137.994 51.8866 137.815 51.7329C137.636 51.6011 137.421 51.4803 137.157 51.4034C136.894 51.3155 136.582 51.2716 136.212 51.2716H134.094C133.663 51.2716 133.327 51.2167 133.088 51.1178C132.849 51.008 132.73 50.7883 132.73 50.4588C132.73 50.2612 132.778 50.0744 132.873 49.9097C132.98 49.734 133.148 49.5912 133.4 49.4814C133.842 49.8218 134.453 49.9976 135.231 49.9976C135.626 49.9976 135.985 49.9427 136.296 49.8438C136.619 49.734 136.883 49.5912 137.11 49.4155C137.337 49.2397 137.505 49.0311 137.613 48.7895C137.733 48.5588 137.792 48.3062 137.792 48.0426C137.792 47.768 137.732 47.5154 137.613 47.2628C137.494 47.0102 137.325 46.7906 137.122 46.6039L138.427 46.3952H138.426ZM133.267 51.7219L134.094 51.7768H136.129C136.703 51.7768 137.11 51.8647 137.349 52.0404C137.589 52.2161 137.709 52.4797 137.709 52.8311C137.709 53.0947 137.637 53.3364 137.494 53.556C137.362 53.7647 137.17 53.9514 136.919 54.1052C136.667 54.2699 136.368 54.3907 136.033 54.4786C135.674 54.5555 135.303 54.5994 134.885 54.5994C134.131 54.5994 133.568 54.4786 133.185 54.226C132.827 53.9734 132.634 53.6109 132.634 53.1277C132.634 52.8751 132.682 52.6115 132.79 52.3699C132.898 52.1063 133.053 51.8976 133.268 51.7219H133.267ZM135.23 46.5819H136.343C136.642 46.7686 136.846 46.9663 136.99 47.2079C137.109 47.4276 137.181 47.7131 137.181 48.0426C137.181 48.2733 137.133 48.4819 137.037 48.6686C136.929 48.8553 136.798 49.0091 136.618 49.1299C136.439 49.2507 136.235 49.3496 135.995 49.4265C135.756 49.4924 135.505 49.5253 135.229 49.5253C134.63 49.5253 134.164 49.3825 133.829 49.1189C133.506 48.8334 133.338 48.4819 133.338 48.0426C133.338 47.5813 133.506 47.2189 133.841 46.9663C134.177 46.7137 134.643 46.5819 135.229 46.5819H135.23ZM144.055 46.2414H143.589V51.8427H144.2V48.7785C144.439 48.1195 144.775 47.5923 145.217 47.1969C145.66 46.8016 146.187 46.6039 146.821 46.6039C147.454 46.6039 147.945 46.7686 148.281 47.0761C148.64 47.4056 148.808 47.9108 148.808 48.6027V51.8427H149.418V48.4819C149.418 48.1195 149.358 47.79 149.239 47.4935C149.131 47.1969 148.964 46.9553 148.748 46.7466C148.533 46.538 148.282 46.3842 147.97 46.2744C147.683 46.1646 147.348 46.1096 146.977 46.1096C146.259 46.1096 145.673 46.2634 145.206 46.5709C144.739 46.8894 144.392 47.3178 144.153 47.8779L144.057 46.2414H144.055ZM163.089 47.142L163.364 46.7137C163.041 46.505 162.658 46.3513 162.251 46.2524C161.82 46.1536 161.401 46.1096 160.958 46.1096C160.515 46.1096 160.119 46.1536 159.809 46.2414C159.473 46.3183 159.21 46.4391 158.995 46.5709C158.791 46.7247 158.636 46.8784 158.528 47.0761C158.42 47.2519 158.373 47.4605 158.373 47.6692C158.373 48.0756 158.516 48.4051 158.803 48.6577C159.091 48.9103 159.497 49.064 160.024 49.1189L161.556 49.2837C162.095 49.3386 162.478 49.4594 162.705 49.6461C162.921 49.8218 163.029 50.0525 163.029 50.349C163.029 50.6895 162.849 50.9641 162.466 51.1727C162.106 51.3814 161.569 51.4912 160.874 51.4912C160.432 51.4912 160.013 51.4473 159.618 51.3375C159.223 51.2496 158.827 51.0849 158.457 50.8652L158.169 51.3375C158.576 51.5681 158.995 51.7329 159.426 51.8317C159.845 51.9306 160.312 51.9745 160.814 51.9745C161.724 51.9745 162.418 51.8207 162.909 51.5352C163.399 51.2386 163.639 50.8323 163.639 50.338C163.639 49.8658 163.447 49.4924 163.064 49.2507C162.693 48.9871 162.19 48.8334 161.568 48.7675L160.203 48.6247C159.761 48.5808 159.437 48.4819 159.258 48.3172C159.079 48.1524 158.983 47.9438 158.983 47.6692C158.983 47.3617 159.139 47.1091 159.473 46.9004C159.785 46.6917 160.276 46.5929 160.934 46.5929C161.688 46.5929 162.406 46.7796 163.088 47.142H163.089ZM169.197 49.2397H174.595C174.643 49.064 174.667 48.8773 174.667 48.6686C174.667 48.2952 174.595 47.9548 174.464 47.6363C174.333 47.3177 174.14 47.0542 173.889 46.8235C173.637 46.5929 173.338 46.4172 173.004 46.2963C172.644 46.1755 172.261 46.1096 171.843 46.1096C171.352 46.1096 170.897 46.1865 170.49 46.3293C170.095 46.4721 169.748 46.6807 169.46 46.9443C169.173 47.2079 168.958 47.5154 168.79 47.8779C168.647 48.2403 168.563 48.6247 168.563 49.053C168.563 49.5033 168.647 49.9097 168.79 50.2831C168.959 50.6346 169.173 50.9421 169.46 51.2057C169.748 51.4473 170.094 51.645 170.49 51.7768C170.896 51.9086 171.351 51.9745 171.843 51.9745C172.346 51.9745 172.812 51.9196 173.243 51.7988C173.686 51.6889 174.081 51.5132 174.452 51.2606L174.164 50.8432C173.817 51.0739 173.446 51.2276 173.076 51.3265C172.704 51.4253 172.297 51.4693 171.867 51.4693C171.089 51.4693 170.467 51.2716 169.988 50.8872C169.497 50.5028 169.234 49.9536 169.198 49.2397H169.197ZM174.056 48.7345H169.209C169.305 48.0756 169.579 47.5594 170.035 47.164C170.478 46.7906 171.065 46.5929 171.795 46.5929C172.549 46.5929 173.111 46.7906 173.482 47.175C173.853 47.5594 174.045 48.0865 174.057 48.7345H174.056ZM180.295 46.2414H179.829V51.8427H180.439V48.8004C180.666 48.1085 180.989 47.5704 181.408 47.186C181.815 46.8016 182.317 46.6148 182.928 46.6148C183.539 46.6148 184.065 46.7686 184.509 47.0761L184.844 46.6478C184.605 46.4611 184.329 46.3293 184.018 46.2414C183.706 46.1536 183.384 46.1096 183.049 46.1096C182.415 46.1096 181.888 46.2524 181.433 46.549C181.002 46.8345 180.643 47.2848 180.38 47.8889L180.295 46.2414ZM190.065 46.2414H189.347L192.207 51.8866H192.889L195.749 46.2414H195.043L192.626 51.2496H192.506L190.064 46.2414H190.065ZM201.415 46.2414H200.793V51.8427H201.415V46.2414ZM201.103 43.8472C200.948 43.8472 200.804 43.8911 200.697 43.9899C200.577 44.0888 200.518 44.2096 200.518 44.3743C200.518 44.5391 200.578 44.6709 200.697 44.7697C200.804 44.8576 200.948 44.9015 201.103 44.9015C201.26 44.9015 201.403 44.8576 201.51 44.7697C201.63 44.6709 201.689 44.5391 201.689 44.3743C201.689 44.2096 201.629 44.0888 201.51 43.9899C201.403 43.8911 201.259 43.8472 201.103 43.8472ZM211.928 47.2958L212.298 46.9333C212.035 46.6807 211.687 46.4721 211.269 46.3293C210.85 46.1865 210.359 46.1096 209.808 46.1096C209.366 46.1096 208.946 46.1755 208.551 46.3183C208.157 46.4611 207.821 46.6588 207.522 46.9004C207.223 47.164 206.995 47.4715 206.828 47.8339C206.661 48.1964 206.577 48.6027 206.577 49.053C206.577 49.4594 206.648 49.8438 206.78 50.1953C206.923 50.5577 207.139 50.8652 207.402 51.1288C207.689 51.3924 208.024 51.6011 208.431 51.7548C208.826 51.8976 209.294 51.9745 209.807 51.9745C210.921 51.9745 211.794 51.656 212.452 51.03L212.082 50.6565C211.507 51.1947 210.765 51.4693 209.855 51.4693C209.437 51.4693 209.065 51.4144 208.742 51.2935C208.418 51.1727 208.143 51.008 207.905 50.7883C207.689 50.5797 207.51 50.3161 207.378 50.0195C207.259 49.712 207.198 49.3715 207.198 48.9871C207.198 48.6247 207.271 48.2842 207.402 47.9987C207.546 47.6912 207.737 47.4495 207.977 47.2409C208.216 47.0322 208.491 46.8784 208.815 46.7686C209.138 46.6588 209.473 46.6039 209.832 46.6039C210.287 46.6039 210.682 46.6698 211.029 46.7906C211.377 46.9114 211.675 47.0871 211.927 47.2958H211.928ZM217.772 49.2397H223.17C223.218 49.064 223.242 48.8773 223.242 48.6686C223.242 48.2952 223.17 47.9548 223.039 47.6363C222.908 47.3177 222.716 47.0542 222.464 46.8235C222.213 46.5929 221.913 46.4172 221.579 46.2963C221.219 46.1755 220.837 46.1096 220.418 46.1096C219.927 46.1096 219.473 46.1865 219.065 46.3293C218.671 46.4721 218.323 46.6807 218.036 46.9443C217.748 47.2079 217.533 47.5154 217.366 47.8779C217.222 48.2403 217.138 48.6247 217.138 49.053C217.138 49.5033 217.222 49.9097 217.366 50.2831C217.534 50.6346 217.748 50.9421 218.036 51.2057C218.323 51.4473 218.67 51.645 219.065 51.7768C219.472 51.9086 219.926 51.9745 220.418 51.9745C220.921 51.9745 221.388 51.9196 221.818 51.7988C222.261 51.6889 222.656 51.5132 223.027 51.2606L222.74 50.8432C222.392 51.0739 222.022 51.2276 221.65 51.3265C221.279 51.4253 220.872 51.4693 220.441 51.4693C219.663 51.4693 219.041 51.2716 218.562 50.8872C218.072 50.5028 217.808 49.9536 217.772 49.2397ZM222.631 48.7345H217.784C217.88 48.0756 218.155 47.5594 218.61 47.164C219.053 46.7906 219.64 46.5929 220.37 46.5929C221.124 46.5929 221.686 46.7906 222.058 47.175C222.428 47.5594 222.62 48.0865 222.632 48.7345H222.631Z" fill="#22252C"/>
<path fill-rule="evenodd" clip-rule="evenodd" d="M1.16664 1H66.2185V65.8527H1.16664V1Z" fill="#22252C" stroke="#2B2A29" stroke-width="0.199969" stroke-miterlimit="22.9256"/>
<path fill-rule="evenodd" clip-rule="evenodd" d="M15.1444 16.8935L32.5103 7.0459L32.6695 29.6796L15.7013 40.0833L15.1444 16.8935Z" fill="white"/>
<path d="M66.0172 16.4399C65.0418 16.0466 32.3511 7.66064 32.3511 7.66064" stroke="white" stroke-width="0.705709" stroke-miterlimit="22.9256"/>
<path d="M32.1408 21.9482L52.0724 26.7338L52.2117 49.5921L35.4477 58.9844L35.1012 37.1615L41.4156 33.2266L42.8597 32.327L32.0576 29.4535" stroke="white" stroke-width="0.705709" stroke-miterlimit="22.9256"/>
<path d="M24.6085 33.9585L35.1012 37.1615" stroke="white" stroke-width="0.705709" stroke-miterlimit="22.9256"/>
<path d="M15.8956 39.4395L35.2354 45.6268" stroke="white" stroke-width="0.705709" stroke-miterlimit="22.9256"/>
<path d="M35.0407 59.4469L1 50.1045" stroke="white" stroke-width="0.705709" stroke-miterlimit="22.9256"/>
<path d="M1.16664 27.9595L16.0158 31.7625" stroke="white" stroke-width="0.705709" stroke-miterlimit="22.9256"/>
<path d="M52.1185 34.3438L66.2185 38.1029" stroke="white" stroke-width="0.705709" stroke-miterlimit="22.9256"/>
<path fill-rule="evenodd" clip-rule="evenodd" d="M51.5386 26.6074C49.0359 28.189 45.4416 30.5213 42.7255 32.2935L42.8597 32.3285L41.4156 33.2281L38.8998 34.7956C38.8978 34.7966 38.8968 34.7976 38.8968 34.7976L35.1012 37.1629L35.2143 44.2958L35.4367 58.2969L35.4477 58.9859L52.2116 49.5935L52.1195 34.3453L52.0734 26.7342L51.5396 26.6074H51.5386Z" fill="white"/>
</svg>
